<svg width="57" height="19" viewBox="0 0 57 19" fill="none" xmlns="http://www.w3.org/2000/svg">
<path d="M2.36 18.144C1.896 18.144 1.52 18.008 1.232 17.736C0.96 17.448 0.824 17.064 0.824 16.584V2.544C0.824 2.08 0.952 1.72 1.208 1.464C1.48 1.208 1.848 1.08 2.312 1.08H8.216C10.024 1.08 11.432 1.536 12.44 2.448C13.448 3.344 13.952 4.608 13.952 6.24C13.952 7.872 13.448 9.144 12.44 10.056C11.432 10.968 10.024 11.424 8.216 11.424H3.92V16.584C3.92 17.064 3.776 17.448 3.488 17.736C3.216 18.008 2.84 18.144 2.36 18.144ZM7.832 9.048C9.96 9.048 11.024 8.12 11.024 6.264C11.024 4.408 9.96 3.48 7.832 3.48H3.92V9.048H7.832ZM17.8918 18.144C17.4598 18.144 17.0998 18.024 16.8118 17.784C16.5398 17.528 16.4038 17.168 16.4038 16.704V2.376C16.4038 1.912 16.5398 1.56 16.8118 1.32C17.0998 1.08 17.4598 0.959999 17.8918 0.959999C18.3238 0.959999 18.6838 1.08 18.9718 1.32C19.2598 1.56 19.4038 1.912 19.4038 2.376V16.704C19.4038 17.168 19.2598 17.528 18.9718 17.784C18.6838 18.024 18.3238 18.144 17.8918 18.144ZM27.5855 5.976C29.2175 5.976 30.4255 6.384 31.2095 7.2C32.0095 8 32.4095 9.224 32.4095 10.872V16.728C32.4095 17.16 32.2815 17.504 32.0255 17.76C31.7695 18 31.4175 18.12 30.9695 18.12C30.5535 18.12 30.2095 17.992 29.9375 17.736C29.6815 17.48 29.5535 17.144 29.5535 16.728V16.2C29.2815 16.824 28.8495 17.312 28.2575 17.664C27.6815 18.016 27.0095 18.192 26.2415 18.192C25.4575 18.192 24.7455 18.032 24.1055 17.712C23.4655 17.392 22.9615 16.952 22.5935 16.392C22.2255 15.832 22.0415 15.208 22.0415 14.52C22.0415 13.656 22.2575 12.976 22.6895 12.48C23.1375 11.984 23.8575 11.624 24.8495 11.4C25.8415 11.176 27.2095 11.064 28.9535 11.064H29.5535V10.512C29.5535 9.728 29.3855 9.16 29.0495 8.808C28.7135 8.44 28.1695 8.256 27.4175 8.256C26.9535 8.256 26.4815 8.328 26.0015 8.472C25.5215 8.6 24.9535 8.792 24.2975 9.048C23.8815 9.256 23.5775 9.36 23.3855 9.36C23.0975 9.36 22.8575 9.256 22.6655 9.048C22.4895 8.84 22.4015 8.568 22.4015 8.232C22.4015 7.96 22.4655 7.728 22.5935 7.536C22.7375 7.328 22.9695 7.136 23.2895 6.96C23.8495 6.656 24.5135 6.416 25.2815 6.24C26.0655 6.064 26.8335 5.976 27.5855 5.976ZM26.8415 16.032C27.6415 16.032 28.2895 15.768 28.7855 15.24C29.2975 14.696 29.5535 14 29.5535 13.152V12.648H29.1215C28.0495 12.648 27.2175 12.696 26.6255 12.792C26.0335 12.888 25.6095 13.056 25.3535 13.296C25.0975 13.536 24.9695 13.864 24.9695 14.28C24.9695 14.792 25.1455 15.216 25.4975 15.552C25.8655 15.872 26.3135 16.032 26.8415 16.032ZM42.2744 5.976C43.6824 5.976 44.7304 6.376 45.4184 7.176C46.1064 7.976 46.4504 9.184 46.4504 10.8V16.704C46.4504 17.152 46.3144 17.504 46.0424 17.76C45.7864 18.016 45.4264 18.144 44.9624 18.144C44.4984 18.144 44.1304 18.016 43.8584 17.76C43.5864 17.504 43.4504 17.152 43.4504 16.704V10.968C43.4504 10.056 43.2744 9.392 42.9224 8.976C42.5864 8.56 42.0504 8.352 41.3144 8.352C40.4504 8.352 39.7544 8.624 39.2264 9.168C38.7144 9.712 38.4584 10.44 38.4584 11.352V16.704C38.4584 17.152 38.3224 17.504 38.0504 17.76C37.7784 18.016 37.4104 18.144 36.9464 18.144C36.4824 18.144 36.1144 18.016 35.8424 17.76C35.5864 17.504 35.4584 17.152 35.4584 16.704V7.416C35.4584 7 35.5944 6.664 35.8664 6.408C36.1384 6.152 36.5064 6.024 36.9704 6.024C37.3864 6.024 37.7224 6.152 37.9784 6.408C38.2504 6.648 38.3864 6.968 38.3864 7.368V8.016C38.7864 7.36 39.3224 6.856 39.9944 6.504C40.6664 6.152 41.4264 5.976 42.2744 5.976ZM55.5935 15.912C56.3935 15.96 56.7935 16.32 56.7935 16.992C56.7935 17.376 56.6335 17.672 56.3135 17.88C56.0095 18.072 55.5695 18.152 54.9935 18.12L54.3455 18.072C51.6575 17.88 50.3135 16.44 50.3135 13.752V8.52H49.1135C48.6815 8.52 48.3455 8.424 48.1055 8.232C47.8815 8.04 47.7695 7.76 47.7695 7.392C47.7695 7.024 47.8815 6.744 48.1055 6.552C48.3455 6.36 48.6815 6.264 49.1135 6.264H50.3135V4.056C50.3135 3.624 50.4495 3.28 50.7215 3.024C50.9935 2.768 51.3615 2.64 51.8255 2.64C52.2735 2.64 52.6335 2.768 52.9055 3.024C53.1775 3.28 53.3135 3.624 53.3135 4.056V6.264H55.3535C55.7855 6.264 56.1135 6.36 56.3375 6.552C56.5775 6.744 56.6975 7.024 56.6975 7.392C56.6975 7.76 56.5775 8.04 56.3375 8.232C56.1135 8.424 55.7855 8.52 55.3535 8.52H53.3135V13.968C53.3135 15.152 53.8575 15.784 54.9455 15.864L55.5935 15.912Z" fill="#1A1A1A"/>
</svg>
